<svg width="16" height="16" viewBox="0 0 16 16" fill="none" xmlns="http://www.w3.org/2000/svg">
<path d="M9.35019 2.14941C9.1115 2.14941 8.88258 2.24424 8.7138 2.41302C8.54502 2.5818 8.4502 2.81072 8.4502 3.04941V4.84941C8.4502 5.08811 8.54502 5.31703 8.7138 5.48581C8.88258 5.65459 9.1115 5.74941 9.35019 5.74941V7.09941L10.9702 5.74941H12.9502C13.1889 5.74941 13.4178 5.65459 13.5866 5.48581C13.7554 5.31703 13.8502 5.08811 13.8502 4.84941V3.04941C13.8502 2.81072 13.7554 2.5818 13.5866 2.41302C13.4178 2.24424 13.1889 2.14941 12.9502 2.14941H9.35019ZM5.3002 4.39941C4.82281 4.39941 4.36497 4.58906 4.0274 4.92662C3.68984 5.26419 3.5002 5.72202 3.5002 6.19941C3.5002 6.6768 3.68984 7.13464 4.0274 7.47221C4.36497 7.80977 4.82281 7.99941 5.3002 7.99941C5.77759 7.99941 6.23542 7.80977 6.57299 7.47221C6.91055 7.13464 7.10019 6.6768 7.10019 6.19941C7.10019 5.72202 6.91055 5.26419 6.57299 4.92662C6.23542 4.58906 5.77759 4.39941 5.3002 4.39941ZM7.5502 8.89941H3.0502C2.69215 8.89941 2.34878 9.04165 2.0956 9.29482C1.84243 9.54799 1.7002 9.89137 1.7002 10.2494C1.7002 11.2538 2.1133 12.0584 2.791 12.6029C3.4579 13.1384 4.3525 13.3994 5.3002 13.3994C6.2479 13.3994 7.1425 13.1384 7.8094 12.6029C8.4862 12.0584 8.9002 11.2538 8.9002 10.2494C8.9002 9.89137 8.75796 9.54799 8.50479 9.29482C8.25162 9.04165 7.90824 8.89941 7.5502 8.89941Z" fill="black"/>
</svg>
