<svg width="16" height="16" viewBox="0 0 16 16" fill="none" xmlns="http://www.w3.org/2000/svg">
<path d="M8.30218 3.7718L8.55658 3.401L7.81438 2.8916L7.55998 3.263C7.16278 3.842 7.09258 4.3916 7.17238 4.8482C7.24858 5.2886 7.45918 5.609 7.56118 5.7566L7.56298 5.7596C7.65538 5.8928 7.75498 6.0374 7.79158 6.242C7.82578 6.434 7.81138 6.734 7.54678 7.169L7.31278 7.5536L8.08198 8.0216L8.31598 7.637C8.67838 7.0406 8.75518 6.521 8.67778 6.0848C8.60638 5.6828 8.40958 5.4008 8.31418 5.2634L8.30098 5.2448C8.22118 5.129 8.10178 4.9388 8.05858 4.694C8.01898 4.4648 8.04058 4.154 8.30218 3.7718ZM3.24538 9.2018V9.203H2.60098C2.52218 9.203 2.44416 9.21852 2.37137 9.24867C2.29857 9.27883 2.23243 9.32302 2.17671 9.37874C2.121 9.43445 2.0768 9.5006 2.04665 9.57339C2.0165 9.64619 2.00098 9.72421 2.00098 9.803C2.00098 9.88179 2.0165 9.95982 2.04665 10.0326C2.0768 10.1054 2.121 10.1716 2.17671 10.2273C2.23243 10.283 2.29857 10.3272 2.37137 10.3573C2.44416 10.3875 2.52218 10.403 2.60098 10.403H3.24538C3.24601 11.1982 3.56236 11.9607 4.1249 12.5228C4.68744 13.0849 5.45014 13.4006 6.24538 13.4006H9.80098C10.5962 13.4006 11.3589 13.0849 11.9214 12.5228C12.484 11.9607 12.8003 11.1982 12.801 10.403H13.401C13.5601 10.403 13.7127 10.3398 13.8252 10.2273C13.9378 10.1147 14.001 9.96213 14.001 9.803C14.001 9.64387 13.9378 9.49126 13.8252 9.37874C13.7127 9.26622 13.5601 9.203 13.401 9.203H12.801V9.2018H3.24538ZM5.68198 4.3346L5.42758 4.706C5.24458 4.9724 5.23438 5.18 5.26018 5.3264C5.28838 5.489 5.36818 5.618 5.42638 5.702L5.43718 5.717C5.51038 5.8226 5.67178 6.0536 5.73058 6.383C5.79418 6.743 5.72818 7.1642 5.44138 7.637L5.20738 8.021L4.43818 7.5536L4.67218 7.1696C4.86178 6.8576 4.86478 6.6566 4.84438 6.5396C4.82038 6.4094 4.75738 6.3164 4.68658 6.2144C4.53033 5.99534 4.42347 5.74498 4.37338 5.4806C4.30858 5.1068 4.36738 4.6604 4.68538 4.1966L4.94038 3.8258L5.68198 4.3346ZM11.1738 4.706L11.4282 4.3346L10.686 3.8258L10.4316 4.1966C10.1136 4.6604 10.0542 5.1068 10.1196 5.4806C10.182 5.8388 10.3524 6.0986 10.4328 6.2144C10.5036 6.3164 10.5666 6.4094 10.59 6.5402C10.6104 6.6566 10.608 6.8582 10.4178 7.169L10.1838 7.5536L10.9536 8.0216L11.1876 7.637C11.4744 7.1642 11.5404 6.743 11.4762 6.383C11.4292 6.14193 11.3289 5.9144 11.1828 5.717L11.1726 5.702C11.0907 5.59026 11.034 5.46213 11.0064 5.3264C10.9806 5.18 10.9908 4.9724 11.1738 4.706Z" fill="black"/>
</svg>
