<svg width="16" height="16" viewBox="0 0 16 16" fill="none" xmlns="http://www.w3.org/2000/svg">
<path fill-rule="evenodd" clip-rule="evenodd" d="M7.7 2.59961C8.28987 2.59946 8.86356 2.79248 9.33337 3.14917C9.80318 3.50586 10.1433 4.00659 10.3016 4.57481L10.3328 4.69781L11.4548 4.41761C11.5368 4.3972 11.6222 4.39434 11.7054 4.40922C11.7886 4.42411 11.8677 4.4564 11.9375 4.50398C12.0074 4.55156 12.0664 4.61336 12.1107 4.68533C12.155 4.7573 12.1836 4.83782 12.1946 4.92161L12.2 4.99961V6.08561C12.5384 6.40978 12.8157 6.7923 13.0184 7.21481L13.1012 7.39961H13.4C13.547 7.39963 13.6888 7.45358 13.7986 7.55124C13.9084 7.64889 13.9786 7.78346 13.9958 7.92941L14 7.99961V9.79961C14 9.89837 13.9757 9.9956 13.9291 10.0827C13.8825 10.1698 13.8152 10.244 13.733 10.2988L13.6682 10.336L12.9674 10.687C12.681 11.2424 12.2653 11.7208 11.7554 12.082L11.6 12.1864V12.7996C11.6 12.9466 11.546 13.0884 11.4484 13.1982C11.3507 13.3081 11.2162 13.3782 11.0702 13.3954L11 13.3996H9.2C9.05304 13.3996 8.9112 13.3456 8.80138 13.248C8.69156 13.1503 8.62139 13.0158 8.6042 12.8698L8.6 12.7996H8C7.99998 12.9466 7.94603 13.0884 7.84837 13.1982C7.75072 13.3081 7.61615 13.3782 7.4702 13.3954L7.4 13.3996H5.6C5.45304 13.3996 5.3112 13.3456 5.20138 13.248C5.09156 13.1503 5.02139 13.0158 5.0042 12.8698L5 12.7996V12.1864C4.56637 11.9095 4.19183 11.5495 3.89793 11.1272C3.60404 10.7049 3.39661 10.2286 3.2876 9.72581C2.93371 9.62066 2.62071 9.40924 2.39102 9.12021C2.16134 8.83117 2.02609 8.47851 2.0036 8.11001L2 7.99961V7.69961C2.00017 7.54668 2.05873 7.39959 2.16371 7.28839C2.26869 7.17719 2.41217 7.11027 2.56484 7.10131C2.7175 7.09234 2.86783 7.14201 2.9851 7.24017C3.10237 7.33832 3.17774 7.47755 3.1958 7.62941L3.2 7.69961V7.99961C3.2008 8.08921 3.2188 8.17221 3.254 8.24861C3.34544 7.70839 3.54968 7.1935 3.85341 6.73748C4.15714 6.28147 4.55355 5.89458 5.0168 5.60201C4.97423 5.2243 5.01189 4.84186 5.12731 4.47971C5.24274 4.11755 5.43333 3.78385 5.68661 3.50044C5.93989 3.21702 6.25016 2.99028 6.59712 2.83505C6.94408 2.67981 7.3199 2.59958 7.7 2.59961ZM10.4 7.39961C10.2409 7.39961 10.0883 7.46282 9.97574 7.57535C9.86321 7.68787 9.8 7.84048 9.8 7.99961C9.8 8.15874 9.86321 8.31135 9.97574 8.42387C10.0883 8.5364 10.2409 8.59961 10.4 8.59961C10.5591 8.59961 10.7117 8.5364 10.8243 8.42387C10.9368 8.31135 11 8.15874 11 7.99961C11 7.84048 10.9368 7.68787 10.8243 7.57535C10.7117 7.46282 10.5591 7.39961 10.4 7.39961ZM7.7 3.79961C7.33658 3.79961 6.98551 3.93155 6.71204 4.17091C6.43858 4.41028 6.26132 4.74078 6.2132 5.10101C6.50395 5.03338 6.80149 4.99936 7.1 4.99961H9.1262L9.1682 4.98941C9.09705 4.65278 8.91233 4.35085 8.64503 4.13423C8.37772 3.91761 8.04406 3.79947 7.7 3.79961Z" fill="black"/>
</svg>
